<svg viewBox="0 0 64 64" xmlns="http://www.w3.org/2000/svg"><circle cx="32.5" cy="32.5" fill="#ffe5d2" r="21.5"/><g stroke="#4c241d" stroke-linecap="round" stroke-linejoin="round" stroke-width="2"><path d="m35 4a3 3 0 0 0 -6 0c0 1.657 3 18 3 18s3-16.343 3-18z" fill="#77a052"/><path d="m32 25v2" fill="none"/><path d="m35 60a3 3 0 0 1 -6 0c0-1.657 3-18 3-18s3 16.343 3 18z" fill="#bf7e68"/><path d="m4 29a3 3 0 0 0 0 6c1.657 0 18-3 18-3s-16.343-3-18-3z" fill="#fc8c29"/><path d="m60 29a3 3 0 0 1 0 6c-1.657 0-18-3-18-3s16.343-3 18-3z" fill="#e66353"/><path d="m17.508 13.266a2.848 2.848 0 0 0 -4.008.234 2.848 2.848 0 0 0 -.234 4.008c1.042 1.043 13.444 9.2 13.444 9.2s-8.159-12.4-9.202-13.442z" fill="#bd53b5"/><path d="m50.734 46.492a3.02 3.02 0 0 1 -4.242 4.242c-1.043-1.042-9.2-13.444-9.2-13.444s12.4 8.159 13.442 9.202z" fill="#f4aeab"/><path d="m13.266 46.492a2.848 2.848 0 0 0 .234 4.008 2.848 2.848 0 0 0 4.008.234c1.043-1.042 9.2-13.444 9.2-13.444s-12.4 8.159-13.442 9.202z" fill="#9dc1e4"/><path d="m46.492 13.266a2.848 2.848 0 0 1 4.008.234 2.848 2.848 0 0 1 .234 4.008c-1.042 1.043-13.444 9.2-13.444 9.2s8.159-12.4 9.202-13.442z" fill="#ffce56"/><path d="m32 39v-2" fill="none"/><path d="m25 32h2" fill="none"/><path d="m39 32h-2" fill="none"/><circle cx="32" cy="32" fill="none" r="2"/></g><circle cx="56" cy="8" fill="#4c241d" r="1"/><circle cx="8" cy="56" fill="#4c241d" r="1"/><circle cx="8" cy="8" fill="#4c241d" r="1"/><circle cx="56" cy="56" fill="#4c241d" r="1"/></svg>