<svg viewBox="0 0 64 64" xmlns="http://www.w3.org/2000/svg"><circle cx="30.5" cy="33.5" fill="#e5efef" r="21.5"/><g stroke-linecap="round" stroke-linejoin="round" stroke-width="2"><path d="m38 40v-21a3 3 0 0 0 -3-3 3 3 0 0 0 -3 3v17" fill="none" stroke="#4c241d"/><path d="m32 19v16" fill="none" stroke="#4c241d"/><path d="m29 61v-8h20v8" fill="#ffe8dc" stroke="#4c241d"/><path d="m33 56.021a11.689 11.689 0 0 1 -7-10.708v-29.313a3 3 0 0 1 3-3 3 3 0 0 1 3 3v-7a3 3 0 0 1 3-3 3 3 0 0 1 3 3v-4a3 3 0 0 1 3-3 3 3 0 0 1 3 3v4a3 3 0 0 1 3-3 3 3 0 0 1 3 3v16.514h.028a3.487 3.487 0 0 1 3.486-3.514 3.486 3.486 0 0 1 3.486 3.486v18.272a12.655 12.655 0 0 1 -3.707 8.949l-.471.471a13.056 13.056 0 0 1 -3.822 2.65" fill="#ffe8dc" stroke="#4c241d"/><path d="m44 9v20" fill="none" stroke="#4c241d"/><path d="m32 14v16" fill="none" stroke="#4c241d"/><path d="m38 28v-19" fill="none" stroke="#4c241d"/><path d="m50 26v10l-2.464 2.464a12.073 12.073 0 0 0 -3.536 8.536" fill="none" stroke="#4c241d"/><path d="m46 35s-6-1-13 8" fill="#ffe8dc" stroke="#f4aeab"/><path d="m32 35 5.278 3.137" fill="#ffe8dc" stroke="#f4aeab"/><circle cx="8.5" cy="31.5" fill="none" r="2.5" stroke="#4c241d"/><path d="m12 15h2" fill="none" stroke="#4c241d"/><path d="m16 11v2" fill="none" stroke="#4c241d"/><path d="m16 17v2" fill="none" stroke="#4c241d"/><path d="m18 15h2" fill="none" stroke="#4c241d"/></g><circle cx="13" cy="44" fill="#4c241d" r="1"/></svg>